<?xml version="1.0" encoding="UTF-8"?>
<svg version="1.1" xmlns="http://www.w3.org/2000/svg" width="217" height="332">
<path d="M0 0 C10.27143809 8.67572448 16.47872274 19.60469668 19.15234375 32.75 C20.07698269 45.00146591 17.56811432 54.62137238 11.70703125 65.46875 C10.07944395 68.63512401 10.07944395 68.63512401 9.40234375 72.0625 C10.45935061 73.90505571 10.45935061 73.90505571 12.08984375 75.625 C19.29376519 84.76004257 20.61905238 94.64977306 19.40234375 106.0625 C18.18909727 111.17546733 16.77109359 115.51954563 13.25390625 119.484375 C10.90140522 122.76000934 11.07867976 124.2258924 11.52734375 128.1875 C11.65238281 129.43144531 11.77742188 130.67539063 11.90625 131.95703125 C12.1507545 134.02756937 12.40656797 136.09650692 12.66357422 138.16552734 C16.46006205 168.96235796 17.12589615 206.11205896 0.40234375 233.625 C-2.78081687 237.50447701 -5.08362571 238.90028244 -10.09765625 239.4375 C-13.93568657 239.02628247 -15.52532589 238.33758008 -18.59765625 236.0625 C-20.22265625 233.4609375 -20.22265625 233.4609375 -21.59765625 230.4375 C-22.10425781 229.37015625 -22.61085938 228.3028125 -23.1328125 227.203125 C-23.61621094 226.16671875 -24.09960938 225.1303125 -24.59765625 224.0625 C-27.58396556 217.88392902 -30.65240355 212.78659565 -36.59765625 209.0625 C-37.92468657 208.70489766 -39.25775554 208.36836759 -40.59765625 208.0625 C-40.57670898 208.69752441 -40.55576172 209.33254883 -40.53417969 209.98681641 C-40.45061044 212.88688076 -40.39886851 215.78669116 -40.34765625 218.6875 C-40.29738281 220.18603516 -40.29738281 220.18603516 -40.24609375 221.71484375 C-40.1648899 227.8457342 -40.43506984 231.43574029 -44.59765625 236.0625 C-48.35480172 238.56726364 -51.25391334 238.77088818 -55.59765625 238.0625 C-62.56837822 235.69033416 -65.72759111 230.46870785 -69.07421875 224.20703125 C-78.82039062 204.08993291 -82.18356237 180.02263386 -82.82421875 157.8671875 C-82.85290039 156.87904053 -82.88158203 155.89089355 -82.91113281 154.87280273 C-82.95078821 153.021116 -82.96751326 151.16872626 -82.95605469 149.31665039 C-83.04404004 143.73655475 -84.10144796 140.36883967 -87.42822266 135.85375977 C-91.82505684 129.11898474 -89.99245155 119.17637657 -88.47045898 111.75488281 C-85.43461665 98.38466988 -79.76223459 86.25839955 -69.29296875 77.03125 C-67.36433412 75.24294518 -67.36433412 75.24294518 -67.671875 73.06640625 C-68.70868385 70.82217443 -69.94144038 68.9892734 -71.41015625 67 C-78.63998037 56.45071336 -81.21365557 43.69487393 -79.1015625 31.10546875 C-75.94517855 17.21381286 -69.12454746 6.5983466 -57.59765625 -1.9375 C-39.18022532 -12.82644785 -17.57563886 -13.10904793 0 0 Z M-59.59765625 15.0625 C-66.27087685 24.08928657 -68.74863096 32.88784682 -67.59765625 44.0625 C-65.89769261 52.6030359 -62.98632883 59.95546264 -56.59765625 66.0625 C-55.60765625 66.3925 -54.61765625 66.7225 -53.59765625 67.0625 C-52.89640625 66.5675 -52.19515625 66.0725 -51.47265625 65.5625 C-47.32356278 63.39775558 -44.0510615 63.91959069 -39.59765625 65.0625 C-34.30266861 67.70999382 -31.76037637 71.22539864 -28.59765625 76.0625 C-18.7767593 75.73513677 -10.38278084 72.03090363 -3.16015625 65.3125 C5.07034661 56.3961219 6.88366964 46.823603 6.6875 35.125 C6.223273 25.0473083 0.52329755 16.62105014 -6.52734375 9.73828125 C-22.79019225 -3.42542065 -46.09242774 -0.26125433 -59.59765625 15.0625 Z M-45.59765625 77.0625 C-46.52796052 90.2934941 -44.29639311 103.38900933 -36.20703125 114.29296875 C-31.83631281 119.09863732 -27.33062649 121.78871375 -20.828125 122.265625 C-11.24912321 122.41318344 -5.68962666 120.36281631 1.5078125 114.07421875 C7.42100601 107.79526069 8.00766193 103.19969302 7.80859375 94.7890625 C7.28287173 89.96657396 5.90763519 86.18952028 3.40234375 82.0625 C0.81832826 84.54315487 -1.53296683 87.14716235 -3.84765625 89.875 C-14.01686212 101.55318481 -14.01686212 101.55318481 -19.59765625 102.0625 C-24.00871414 100.85214875 -26.23699704 96.99399936 -28.84765625 93.5 C-29.8196301 92.23415084 -30.79359865 90.96983085 -31.76953125 89.70703125 C-32.24712891 89.08779785 -32.72472656 88.46856445 -33.21679688 87.83056641 C-35.11783339 85.39645989 -37.08225028 83.02761027 -39.09765625 80.6875 C-39.70609375 79.97851562 -40.31453125 79.26953125 -40.94140625 78.5390625 C-42.60106257 76.72977208 -42.60106257 76.72977208 -45.59765625 77.0625 Z M-62.59765625 86.0625 C-73.22414059 97.39156182 -78.19781182 111.40134677 -77.984375 126.703125 C-77.44883307 131.35530746 -75.9565543 134.7743156 -72.59765625 138.0625 C-66.82443689 141.69481718 -59.8502092 140.61282701 -53.4609375 139.234375 C-45.26048652 137.39572672 -45.26048652 137.39572672 -37.59765625 134.0625 C-37.59765625 133.4025 -37.59765625 132.7425 -37.59765625 132.0625 C-39.25483262 130.6519404 -39.25483262 130.6519404 -41.34765625 129.25 C-44.12935201 127.27557958 -45.64426195 125.99404788 -47.59765625 123.125 C-48.25765625 122.444375 -48.91765625 121.76375 -49.59765625 121.0625 C-52.92872253 121.15552623 -52.92872253 121.15552623 -55.23828125 121.65234375 C-57.98351288 122.12957773 -60.6247582 122.25723417 -63.41015625 122.3125 C-64.32410156 122.33828125 -65.23804688 122.3640625 -66.1796875 122.390625 C-68.59765625 122.0625 -68.59765625 122.0625 -70.484375 120.859375 C-71.59765625 119.0625 -71.59765625 119.0625 -71.59375 116.57421875 C-70.27735169 113.25483008 -68.77523512 112.54203647 -65.66015625 110.875 C-61.86532819 108.82567968 -61.86532819 108.82567968 -58.59765625 106.0625 C-58.44353484 99.38390546 -60.17501405 92.55416827 -61.59765625 86.0625 C-61.92765625 86.0625 -62.25765625 86.0625 -62.59765625 86.0625 Z M-5.59765625 132 C-8.60411398 132.92123342 -11.27396905 133.15122245 -14.41015625 133.25 C-19.84115794 133.69502897 -22.98505183 136.05700284 -27.24609375 139.2890625 C-37.50269652 147.02410844 -51.3252585 149.80168893 -63.91015625 150.625 C-65.16441406 150.70878906 -66.41867188 150.79257813 -67.7109375 150.87890625 C-68.66355469 150.93949219 -69.61617187 151.00007813 -70.59765625 151.0625 C-71.5941158 174.42394051 -68.90401404 205.10296331 -55.59765625 225.0625 C-54.60765625 225.0625 -53.61765625 225.0625 -52.59765625 225.0625 C-52.26765625 215.4925 -51.93765625 205.9225 -51.59765625 196.0625 C-33.53024052 196.0625 -33.53024052 196.0625 -25.59765625 202.0625 C-18.84738555 209.0179461 -14.79790391 216.99245137 -11.59765625 226.0625 C-10.60765625 225.7325 -9.61765625 225.4025 -8.59765625 225.0625 C-7.4313061 222.53237064 -6.48260818 220.12880255 -5.59765625 217.5 C-5.33637939 216.74219238 -5.07510254 215.98438477 -4.8059082 215.20361328 C-2.28269988 207.60643377 -0.79507721 199.97064707 0.40234375 192.0625 C0.57507813 190.99700928 0.7478125 189.93151855 0.92578125 188.83374023 C1.42074682 184.91686872 1.56354027 181.07681102 1.5703125 177.13671875 C1.574366 176.3951503 1.57841949 175.65358185 1.58259583 174.88954163 C1.59197828 172.50964962 1.59200283 170.12990785 1.58984375 167.75 C1.59056885 166.94413452 1.59129395 166.13826904 1.59204102 165.3079834 C1.59089083 153.78595421 1.26818278 142.4574455 -0.59765625 131.0625 C-2.80334171 130.963075 -2.80334171 130.963075 -5.59765625 132 Z " fill="#3CE692" transform="translate(145.59765625,79.9375)"/>
<path d="M0 0 C1.98 0.33 3.96 0.66 6 1 C7 4 7 4 6.4375 7.4375 C5.98504795 11.12175245 6.13137134 11.9894316 8 15 C8.36784131 16.3242287 8.71202981 17.65613912 9 19 C8.01 18.67 7.02 18.34 6 18 C4.15342812 18.67292119 4.15342812 18.67292119 2.375 19.8125 C1.45847656 20.34810547 1.45847656 20.34810547 0.5234375 20.89453125 C-1.16133631 21.93828506 -1.16133631 21.93828506 -2 24 C-2.66 24 -3.32 24 -4 24 C-4 24.99 -4 25.98 -4 27 C-4.66 27 -5.32 27 -6 27 C-6.268125 27.556875 -6.53625 28.11375 -6.8125 28.6875 C-7.204375 29.450625 -7.59625 30.21375 -8 31 C-8.4125 31.804375 -8.825 32.60875 -9.25 33.4375 C-11.8358074 37.22386084 -14.88408465 39.97410165 -19.0625 42 C-22.88030586 42 -25.5749446 39.42428953 -28.16796875 36.8359375 C-32.74444507 31.25918686 -35.07318002 27.18285487 -36 20 C-36.66 20 -37.32 20 -38 20 C-38 19.01 -38 18.02 -38 17 C-34.28855748 15.28236326 -31.51191957 14.79583033 -27.4375 14.9375 C-24.0263506 15.04631614 -21.28609479 14.8668839 -18 14 C-16.68 14 -15.36 14 -14 14 C-14 13.34 -14 12.68 -14 12 C-12.42578125 10.59765625 -12.42578125 10.59765625 -10.3125 9.0625 C-9.58546875 8.53140625 -8.8584375 8.0003125 -8.109375 7.453125 C-6 6 -6 6 -3.0625 4.3125 C-0.6841984 3.10358292 -0.6841984 3.10358292 0 0 Z " fill="#39E791" transform="translate(147,141)"/>
<path d="M0 0 C3.39068782 1.94525516 5.27861044 3.52577936 6.625 7.3125 C7.27063007 10.49192356 7.38261651 13.1442855 6.625 16.3125 C5.06029537 18.60740012 3.33529612 20.47697315 1.3828125 22.44921875 C-0.91713663 24.88716483 -2.07301595 27.24900812 -3.375 30.3125 C-7.665 30.3125 -11.955 30.3125 -16.375 30.3125 C-16.93733067 26.45651829 -17.15969128 24.41509185 -14.8515625 21.171875 C-13.59821445 19.7906343 -12.31610787 18.43483119 -11.00390625 17.109375 C-9.14884463 15.30549249 -9.14884463 15.30549249 -8.375 12.3125 C-9.57125 12.621875 -10.7675 12.93125 -12 13.25 C-14.82386316 13.62248819 -15.92596111 13.63152968 -18.27734375 11.9609375 C-19.94942337 10.11181415 -21.29961131 8.56676667 -22.375 6.3125 C-22.24609375 4.21484375 -22.24609375 4.21484375 -21.375 2.3125 C-15.14471669 -2.83701987 -7.16862274 -3.21668969 0 0 Z " fill="#39E691" transform="translate(127.375,20.6875)"/>
<path d="M0 0 C0.33 0.66 0.66 1.32 1 2 C0.2578125 3.76953125 0.2578125 3.76953125 -0.875 5.8125 C-2.49461888 8.87860609 -3.56504816 11.52038527 -4 15 C-3.34 15.33 -2.68 15.66 -2 16 C-2.99 16.33 -3.98 16.66 -5 17 C-5.36644578 18.55966592 -5.71760862 20.12292651 -6.0625 21.6875 C-6.25972656 22.55761719 -6.45695312 23.42773438 -6.66015625 24.32421875 C-7.02673428 27.21049408 -6.71687526 29.19522556 -6 32 C-5.82339844 32.74121094 -5.64679688 33.48242188 -5.46484375 34.24609375 C-5.29082031 34.96925781 -5.11679688 35.69242188 -4.9375 36.4375 C-4.12759228 40.02509123 -3.81059545 43.30661134 -4 47 C-1.66785852 48.20628008 0.49642139 49.1654738 3 50 C5.19682738 45.60634524 4.80966512 42.7680279 4 38 C5.54242862 40.31364293 6.7031573 42.38604485 7.875 44.875 C9.56697785 48.2904051 11.37092288 51.201305 14 54 C15.485 54.495 15.485 54.495 17 55 C17.70125 54.505 18.4025 54.01 19.125 53.5 C23.28367172 51.33025823 26.54770695 51.75519079 31 53 C35.18809457 55.05716583 37.5690098 57.23858398 39.875 61.3125 C41.67203026 64.20214328 41.67203026 64.20214328 44.2421875 64.37890625 C46.52466622 64.37535099 48.73351138 64.26151792 51 64 C50.67 64.66 50.34 65.32 50 66 C48.77023438 65.98259766 48.77023438 65.98259766 47.515625 65.96484375 C46.43796875 65.95582031 45.3603125 65.94679688 44.25 65.9375 C43.18265625 65.92589844 42.1153125 65.91429687 41.015625 65.90234375 C38.46631499 65.98489913 36.42066409 66.25382442 34 67 C34.83333333 69.16666667 34.83333333 69.16666667 37 70 C37.40729228 72.32156597 37.74438677 74.6568787 38 77 C35.43588448 74.43588448 32.87896726 71.8732038 30.375 69.25 C28.13466888 66.80995326 28.13466888 66.80995326 25 66 C25.4859793 73.3620694 25.97674072 80.69100518 27 88 C25.10710378 86.40697475 24.10238638 85.48516501 23.58349609 83.02636719 C23.55376709 81.92276855 23.55376709 81.92276855 23.5234375 80.796875 C23.4925 79.98089844 23.4615625 79.16492188 23.4296875 78.32421875 C23.41164062 77.47472656 23.39359375 76.62523437 23.375 75.75 C23.32331621 74.07802945 23.26867532 72.40614744 23.2109375 70.734375 C23.18354492 69.93451172 23.15615234 69.13464844 23.12792969 68.31054688 C22.95357985 65.16160257 22.51281512 62.11051791 22 59 C21.319375 58.9175 20.63875 58.835 19.9375 58.75 C16.1253093 57.77667472 13.35929671 56.04192545 10 54 C10 53.01 10 52.02 10 51 C9.01 51 8.02 51 7 51 C7.33 51.99 7.66 52.98 8 54 C7.54625 54.4125 7.0925 54.825 6.625 55.25 C4.93559781 57.0693562 4.0587506 58.77202047 3 61 C-5.87999319 49.50090769 -10.14743466 37.6245763 -9 23 C-7.7426333 15.5053024 -5.58595064 5.58595064 0 0 Z " fill="#47E197" transform="translate(75,91)"/>
<path d="M0 0 C0.66 0.66 1.32 1.32 2 2 C1.75 4.5625 1.75 4.5625 1 7 C0.01 7.495 0.01 7.495 -1 8 C-1 8.66 -1 9.32 -1 10 C-1.495 10.474375 -1.99 10.94875 -2.5 11.4375 C-4.34626591 12.99969942 -4.34626591 12.99969942 -4 16 C-4.66 16 -5.32 16 -6 16 C-6.33 18.64 -6.66 21.28 -7 24 C-7.66 24 -8.32 24 -9 24 C-8.91207291 26.98042511 -8.80507424 29.95821312 -8.6875 32.9375 C-8.66494141 33.76830078 -8.64238281 34.59910156 -8.61914062 35.45507812 C-8.3929983 40.73858511 -7.53002913 45.08609071 -5.53442383 49.99438477 C-4.9051478 52.35596655 -5.22881732 53.7114633 -6 56 C-8.83834429 56.86727187 -10.35042264 57.32049091 -13.06640625 55.98046875 C-15.7597072 53.22187566 -16.10945087 50.29898098 -16.6875 46.625 C-16.80416016 45.965 -16.92082031 45.305 -17.04101562 44.625 C-17.37124537 42.75183242 -17.6860071 40.8759576 -18 39 C-18.21140625 38.12730469 -18.4228125 37.25460938 -18.640625 36.35546875 C-19.06895804 33.54802499 -18.68839764 31.44881312 -18.0625 28.6875 C-17.86785156 27.80449219 -17.67320313 26.92148438 -17.47265625 26.01171875 C-17.23869141 25.01591797 -17.23869141 25.01591797 -17 24 C-16.01 23.67 -15.02 23.34 -14 23 C-14.33 22.67 -14.66 22.34 -15 22 C-15.40643704 17.85579375 -14.43834917 15.3219047 -12.5 11.6875 C-12.0359375 10.80449219 -11.571875 9.92148438 -11.09375 9.01171875 C-10.7328125 8.34785156 -10.371875 7.68398437 -10 7 C-8.02 7 -6.04 7 -4 7 C-3.71125 6.030625 -3.4225 5.06125 -3.125 4.0625 C-2 1 -2 1 0 0 Z " fill="#39E791" transform="translate(86,84)"/>
<path d="M0 0 C0.66 0.33 1.32 0.66 2 1 C1.57280233 5.55677517 -0.4429702 8.41353578 -3.0390625 12.03515625 C-4.17730252 13.93503355 -4.17730252 13.93503355 -3.828125 15.984375 C-2.86465535 18.32942377 -1.62265195 20.1421992 -0.125 22.1875 C6.0641361 31.36706004 7.0498898 39.97038852 6 51 C4.79593763 56.11263408 3.36642415 60.45966733 -0.1484375 64.421875 C-2.50093853 67.69750934 -2.32366399 69.1633924 -1.875 73.125 C-1.68744141 74.96384766 -1.68744141 74.96384766 -1.49609375 76.83984375 C-1.33176956 78.22668617 -1.16634172 79.61339812 -1 81 C-0.63783929 84.22830734 -0.28703556 87.45780418 0.0625 90.6875 C0.15208984 91.49630615 0.24167969 92.3051123 0.33398438 93.13842773 C0.97232247 99.10822895 1.24292588 104.99433252 1 111 C0.67 111 0.34 111 0 111 C-1.485 100.11 -1.485 100.11 -3 89 C-3.66 89 -4.32 89 -5 89 C-6.01132514 85.85365512 -5.79382869 84.14915655 -5 81 C-4.92291277 79.63199181 -4.89196391 78.26076408 -4.90234375 76.890625 C-4.90717773 75.75947266 -4.90717773 75.75947266 -4.91210938 74.60546875 C-4.92048828 73.82816406 -4.92886719 73.05085938 -4.9375 72.25 C-4.94201172 71.45722656 -4.94652344 70.66445312 -4.95117188 69.84765625 C-4.96291435 67.89840492 -4.98084854 65.94919262 -5 64 C-3.515 63.505 -3.515 63.505 -2 63 C-2.33 62.01 -2.66 61.02 -3 60 C-2.01 60 -1.02 60 0 60 C0 59.01 0 58.02 0 57 C0.66 57 1.32 57 2 57 C1.979375 56.195625 1.95875 55.39125 1.9375 54.5625 C2 52 2 52 3 51 C3.09983684 49.08548183 3.12967589 47.16711381 3.125 45.25 C3.12757813 44.20328125 3.13015625 43.1565625 3.1328125 42.078125 C3.01155348 39.26776878 2.63784091 36.73360391 2 34 C0.515 34.495 0.515 34.495 -1 35 C-1.73323796 37.01508358 -1.73323796 37.01508358 -2 39 C-2.66 39 -3.32 39 -4 39 C-3.67 39.66 -3.34 40.32 -3 41 C-2.8671875 42.875 -2.8671875 42.875 -2.875 45 C-2.87113281 46.051875 -2.87113281 46.051875 -2.8671875 47.125 C-3 49 -3 49 -4 51 C-4.66 51 -5.32 51 -6 51 C-6.03738281 49.99839844 -6.07476562 48.99679688 -6.11328125 47.96484375 C-6.51510949 38.11600537 -6.51510949 38.11600537 -10 29 C-10.66 29 -11.32 29 -12 29 C-12.8971875 30.36125 -12.8971875 30.36125 -13.8125 31.75 C-15.94224941 34.91419912 -17.93373561 36.78547572 -21 39 C-20 37 -19 35 -18 33 C-17.34 33 -16.68 33 -16 33 C-16 32.01 -16 31.02 -16 30 C-15.34 30 -14.68 30 -14 30 C-13.814375 29.401875 -13.62875 28.80375 -13.4375 28.1875 C-11.27726247 24.90018201 -8.64892345 24.35145313 -5 23 C-4.82239558 20.94972228 -4.82239558 20.94972228 -6.0625 19.3125 C-7.41286681 15.98159521 -6.70532451 13.46250216 -6 10 C-5.67 9.34 -5.34 8.68 -5 8 C-4.01 8 -3.02 8 -2 8 C-2 7.01 -2 6.02 -2 5 C-1.34 5 -0.68 5 0 5 C0 3.35 0 1.7 0 0 Z " fill="#46DF95" transform="translate(159,135)"/>
<path d="M0 0 C0 0.33 0 0.66 0 1 C-4.455 1.495 -4.455 1.495 -9 2 C-9 2.33 -9 2.66 -9 3 C-15.435 3.495 -15.435 3.495 -22 4 C-22 4.99 -22 5.98 -22 7 C-21.34 7.33 -20.68 7.66 -20 8 C-20 9.32 -20 10.64 -20 12 C-19.34 12.33 -18.68 12.66 -18 13 C-18 12.34 -18 11.68 -18 11 C-14.85534363 10.77055571 -11.7094385 10.57043443 -8.5625 10.375 C-7.68400391 10.31054688 -6.80550781 10.24609375 -5.90039062 10.1796875 C0.14322424 9.82286891 5.14628868 10.43980431 11 12 C11 12.99 11 13.98 11 15 C9.85015625 14.67902344 8.7003125 14.35804687 7.515625 14.02734375 C-3.9240429 11.18754932 -15.76999918 11.90223854 -26 18 C-33.73990732 23.17745922 -39.85077471 31.32549184 -41.765625 40.57421875 C-42.32460371 46.35964842 -42.1360267 52.19619399 -42 58 C-42.66 57.67 -43.32 57.34 -44 57 C-44 50.73 -44 44.46 -44 38 C-43.34 38 -42.68 38 -42 38 C-42.020625 37.05125 -42.04125 36.1025 -42.0625 35.125 C-42 32 -42 32 -41 30 C-40.34 30 -39.68 30 -39 30 C-39.33 28.68 -39.66 27.36 -40 26 C-38.68 25.34 -37.36 24.68 -36 24 C-36.33 23.01 -36.66 22.02 -37 21 C-36.01 20.67 -35.02 20.34 -34 20 C-34.33 18.35 -34.66 16.7 -35 15 C-35.66 15 -36.32 15 -37 15 C-37.66 17.31 -38.32 19.62 -39 22 C-40.65 22 -42.3 22 -44 22 C-44 17.34026761 -43.50167125 16.88807439 -40.375 13.6875 C-28.97966914 2.81258582 -15.36176229 -0.52568768 0 0 Z " fill="#51DC97" transform="translate(121,70)"/>
<path d="M0 0 C3.63 0 7.26 0 11 0 C11 0.66 11 1.32 11 2 C11.99 1.9175 12.98 1.835 14 1.75 C18.63412067 1.71209308 22.07634666 3.71714715 26 6 C26 8 26 8 24.5 9.625 C20.10497601 12.04226319 15.51875201 11.23798626 10.734375 10.48828125 C6.79702806 9.97346078 3.0312963 9.90237791 -0.9375 9.9375 C-1.96327148 9.94426758 -1.96327148 9.94426758 -3.00976562 9.95117188 C-4.67321604 9.9628044 -6.3366205 9.98073306 -8 10 C-8 10.66 -8 11.32 -8 12 C-9.65 12 -11.3 12 -13 12 C-12.01 11.67 -11.02 11.34 -10 11 C-10.495 9.8553125 -10.495 9.8553125 -11 8.6875 C-12 6 -12 6 -12 3 C-9.56612247 1.78306124 -7.58161154 1.68040104 -4.875 1.4375 C-3.96492188 1.35371094 -3.05484375 1.26992187 -2.1171875 1.18359375 C-1.06917969 1.09271484 -1.06917969 1.09271484 0 1 C0 0.67 0 0.34 0 0 Z " fill="#3AE692" transform="translate(111,71)"/>
<path d="M0 0 C1.92219322 2.88328982 3.20534397 5.65991188 4.625 8.8125 C7.40876539 14.44826032 10.36889161 18.11605178 16 21 C23.26991092 23.44849391 31.90552427 22.57980936 39 20 C39 20.66 39 21.32 39 22 C36.6875 24.1875 36.6875 24.1875 34 26 C33.01 25.67 32.02 25.34 31 25 C28.81415251 24.90532635 26.62539133 24.87011086 24.4375 24.875 C22.70306641 24.87113281 22.70306641 24.87113281 20.93359375 24.8671875 C18.06546562 24.79797384 18.06546562 24.79797384 16 26 C15.67 26.66 15.34 27.32 15 28 C13.68 28 12.36 28 11 28 C10.5875 29.093125 10.175 30.18625 9.75 31.3125 C8.37845028 34.48702588 7.21951885 36.43902116 4 38 C1.75 37.6875 1.75 37.6875 0 37 C0.804375 36.71125 1.60875 36.4225 2.4375 36.125 C5.1326468 35.26737432 5.1326468 35.26737432 6 33 C5.443125 32.7525 4.88625 32.505 4.3125 32.25 C-0.07606544 29.87780247 -3.07775781 26.98487572 -6 23 C-6.99 22.34 -7.98 21.68 -9 21 C-5.65747276 20.92572162 -3.1964086 20.93453047 0 22 C0 22.66 0 23.32 0 24 C0.66 24 1.32 24 2 24 C1.938125 22.8553125 1.938125 22.8553125 1.875 21.6875 C2 19 2 19 4 16 C3.28008262 13.08777172 3.28008262 13.08777172 2 10 C0.66548442 6.29301228 0 3.99100292 0 0 Z " fill="#3EE393" transform="translate(102,179)"/>
<path d="M0 0 C0.33 0.66 0.66 1.32 1 2 C0.2578125 3.76953125 0.2578125 3.76953125 -0.875 5.8125 C-2.49461888 8.87860609 -3.56504816 11.52038527 -4 15 C-3.34 15.33 -2.68 15.66 -2 16 C-2.99 16.33 -3.98 16.66 -5 17 C-5.36644578 18.55966592 -5.71760862 20.12292651 -6.0625 21.6875 C-6.25972656 22.55761719 -6.45695312 23.42773438 -6.66015625 24.32421875 C-7.02673428 27.21049408 -6.71687526 29.19522556 -6 32 C-5.82339844 32.74121094 -5.64679688 33.48242188 -5.46484375 34.24609375 C-5.29082031 34.96925781 -5.11679688 35.69242188 -4.9375 36.4375 C-4.12759228 40.02509123 -3.81059545 43.30661134 -4 47 C-1.66785852 48.20628008 0.49642139 49.1654738 3 50 C5.19682738 45.60634524 4.80966512 42.7680279 4 38 C5.54242862 40.31364293 6.7031573 42.38604485 7.875 44.875 C9.99566139 49.17962611 12.60548087 52.60548087 16 56 C13.83125748 55.49396008 12.00032373 55.00016187 10 54 C10 53.01 10 52.02 10 51 C9.01 51 8.02 51 7 51 C7.33 51.99 7.66 52.98 8 54 C7.54625 54.4125 7.0925 54.825 6.625 55.25 C4.93559781 57.0693562 4.0587506 58.77202047 3 61 C-5.87999319 49.50090769 -10.14743466 37.6245763 -9 23 C-7.7426333 15.5053024 -5.58595064 5.58595064 0 0 Z " fill="#4ADD97" transform="translate(75,91)"/>
<path d="M0 0 C2 2 2 2 2.22705078 4.52197266 C2.21134033 6.07730713 2.21134033 6.07730713 2.1953125 7.6640625 C2.18564453 9.34628906 2.18564453 9.34628906 2.17578125 11.0625 C2.15902344 12.238125 2.14226562 13.41375 2.125 14.625 C2.11597656 15.80835938 2.10695313 16.99171875 2.09765625 18.2109375 C2.07402812 21.14082523 2.04108514 24.0703134 2 27 C1.01 27.33 0.02 27.66 -1 28 C-1 27.34 -1 26.68 -1 26 C-1.66 26 -2.32 26 -3 26 C-3.33 27.32 -3.66 28.64 -4 30 C-6 29 -6 29 -7.125 27 C-8.49277384 22.3104897 -9.01153747 17.26817826 -6.984375 12.72265625 C-6.65953125 12.15417969 -6.3346875 11.58570313 -6 11 C-5.34 11 -4.68 11 -4 11 C-4.33 8.69 -4.66 6.38 -5 4 C-4.360625 3.71125 -3.72125 3.4225 -3.0625 3.125 C-0.84793921 2.17176549 -0.84793921 2.17176549 0 0 Z " fill="#39E791" transform="translate(65,186)"/>
<path d="M0 0 C3.49933432 5.58493757 2.51760433 12.68143986 2 19 C0.80939846 24.11222209 -0.63679045 28.46329105 -4.1484375 32.421875 C-6.50093853 35.69750934 -6.32366399 37.1633924 -5.875 41.125 C-5.74996094 42.35089844 -5.62492188 43.57679688 -5.49609375 44.83984375 C-5.33176956 46.22668617 -5.16634172 47.61339812 -5 49 C-4.63783929 52.22830734 -4.28703556 55.45780418 -3.9375 58.6875 C-3.84791016 59.49630615 -3.75832031 60.3051123 -3.66601562 61.13842773 C-3.02767753 67.10822895 -2.75707412 72.99433252 -3 79 C-3.33 79 -3.66 79 -4 79 C-4.99 71.74 -5.98 64.48 -7 57 C-7.66 57 -8.32 57 -9 57 C-10.01132514 53.85365512 -9.79382869 52.14915655 -9 49 C-8.92291277 47.63199181 -8.89196391 46.26076408 -8.90234375 44.890625 C-8.90556641 44.13652344 -8.90878906 43.38242188 -8.91210938 42.60546875 C-8.92048828 41.82816406 -8.92886719 41.05085938 -8.9375 40.25 C-8.94426758 39.06083984 -8.94426758 39.06083984 -8.95117188 37.84765625 C-8.96291435 35.89840492 -8.98084854 33.94919262 -9 32 C-8.01 31.67 -7.02 31.34 -6 31 C-6.33 30.01 -6.66 29.02 -7 28 C-6.01 28 -5.02 28 -4 28 C-4 27.01 -4 26.02 -4 25 C-3.34 25 -2.68 25 -2 25 C-2.020625 24.195625 -2.04125 23.39125 -2.0625 22.5625 C-2 20 -2 20 -1 19 C-0.93964218 15.8727105 -0.9795658 12.76131704 -1.0390625 9.63476562 C-1.07858784 6.26523057 -1.05953841 3.22000344 0 0 Z " fill="#56DA9C" transform="translate(163,167)"/>
<path d="M0 0 C1.08667969 0.02707031 2.17335938 0.05414063 3.29296875 0.08203125 C4.54013672 0.13423828 4.54013672 0.13423828 5.8125 0.1875 C5.8125 0.5175 5.8125 0.8475 5.8125 1.1875 C-0.6225 1.6825 -0.6225 1.6825 -7.1875 2.1875 C-7.1875 12.0875 -7.1875 21.9875 -7.1875 32.1875 C-9.8275 32.1875 -12.4675 32.1875 -15.1875 32.1875 C-15.8475 33.1775 -16.5075 34.1675 -17.1875 35.1875 C-16.5275 36.5075 -15.8675 37.8275 -15.1875 39.1875 C-12.8775 39.1875 -10.5675 39.1875 -8.1875 39.1875 C-8.5175 39.8475 -8.8475 40.5075 -9.1875 41.1875 C-6.8775 41.1875 -4.5675 41.1875 -2.1875 41.1875 C-4.1875 43.1875 -4.1875 43.1875 -7.8125 43.625 C-12.75125666 43.50783971 -16.53589071 41.44480406 -20.1875 38.1875 C-21.4140625 36.015625 -21.4140625 36.015625 -22.1875 34.1875 C-21.5275 33.5275 -20.8675 32.8675 -20.1875 32.1875 C-20.02062552 29.60395782 -20.02062552 29.60395782 -20.1875 27.1875 C-19.1975 27.8475 -18.2075 28.5075 -17.1875 29.1875 C-16.8575 27.2075 -16.5275 25.2275 -16.1875 23.1875 C-14.68190461 25.15132007 -13.29618317 26.97013366 -12.1875 29.1875 C-11.1975 29.5175 -10.2075 29.8475 -9.1875 30.1875 C-9.21106567 28.98420044 -9.21106567 28.98420044 -9.23510742 27.7565918 C-9.29738583 24.12946596 -9.33646864 20.50245251 -9.375 16.875 C-9.40013672 15.61236328 -9.42527344 14.34972656 -9.45117188 13.04882812 C-9.46083984 11.84033203 -9.47050781 10.63183594 -9.48046875 9.38671875 C-9.4961792 8.27127686 -9.51188965 7.15583496 -9.52807617 6.0065918 C-9.1875 3.1875 -9.1875 3.1875 -7.8515625 1.31835938 C-5.28340865 -0.4269001 -3.05216662 -0.09845699 0 0 Z " fill="#52D597" transform="translate(102.1875,274.8125)"/>
<path d="M0 0 C0.19401633 1.81181405 0.38004375 3.62448532 0.5625 5.4375 C0.66691406 6.44683594 0.77132812 7.45617187 0.87890625 8.49609375 C0.93884766 9.73552734 0.93884766 9.73552734 1 11 C0 12 0 12 -2.46875 12.1328125 C-3.96921875 12.12894531 -3.96921875 12.12894531 -5.5 12.125 C-6.5003125 12.12757812 -7.500625 12.13015625 -8.53125 12.1328125 C-11 12 -11 12 -12 11 C-12.23529412 3.70588235 -12.23529412 3.70588235 -11 0 C-3.375 -1.125 -3.375 -1.125 0 0 Z " fill="#36E990" transform="translate(123,53)"/>
<path d="M0 0 C1.051875 0.2475 1.051875 0.2475 2.125 0.5 C5.13888194 1.02415338 7.94713625 1.07099683 11 1 C11.09978121 4.49234244 10.77842938 7.59437148 10 11 C10.66 11.33 11.32 11.66 12 12 C11.67 13.65 11.34 15.3 11 17 C11.99 17.33 12.98 17.66 14 18 C14 17.01 14 16.02 14 15 C14.66 15 15.32 15 16 15 C15.67 16.65 15.34 18.3 15 20 C10.71 20 6.42 20 2 20 C1.43766933 16.14401829 1.21530872 14.10259185 3.5234375 10.859375 C4.77678555 9.4781343 6.05889213 8.12233119 7.37109375 6.796875 C9.22615537 4.99299249 9.22615537 4.99299249 10 2 C7.36 2.33 4.72 2.66 2 3 C1.34 2.01 0.68 1.02 0 0 Z " fill="#43DB93" transform="translate(109,31)"/>
<path d="M0 0 C0.99 0.33 1.98 0.66 3 1 C3.98015576 6.7232531 4.14579425 12.2626918 4.1328125 18.0625 C4.13376923 19.01261963 4.13472595 19.96273926 4.13571167 20.94165039 C4.13638937 22.94189521 4.13456379 24.94214227 4.13037109 26.94238281 C4.12501707 29.990285 4.13033006 33.03803985 4.13671875 36.0859375 C4.1360579 38.03645866 4.13477658 39.98697972 4.1328125 41.9375 C4.13483673 42.84185791 4.13686096 43.74621582 4.13894653 44.67797852 C4.12101024 49.55894209 3.82420959 54.18733624 3 59 C2.34 59 1.68 59 1 59 C1.00523682 57.81672119 1.01047363 56.63344238 1.01586914 55.41430664 C1.03424531 50.93937973 1.04554861 46.46445599 1.05493164 41.98950195 C1.05989853 40.06859777 1.0666743 38.14769724 1.07543945 36.22680664 C1.12926879 24.108872 0.88937541 12.08728365 0 0 Z " fill="#54D195" transform="translate(145,212)"/>
<path d="M0 0 C1.32 0.33 2.64 0.66 4 1 C5.69847043 7.63212262 6.30967714 13.66696796 6.25 20.5 C6.25773437 21.38558594 6.26546875 22.27117187 6.2734375 23.18359375 C6.23845182 35.09621639 6.23845182 35.09621639 4 40 C1.94848633 41.13183594 1.94848633 41.13183594 0 42 C-0.13535156 42.61359375 -0.27070313 43.2271875 -0.41015625 43.859375 C-1.33247533 47.20659923 -3.65747523 48.29783696 -6.4375 50.25 C-7.42621094 50.95640625 -8.41492188 51.6628125 -9.43359375 52.390625 C-12 54 -12 54 -14 54 C-14 54.66 -14 55.32 -14 56 C-16.375 56.625 -16.375 56.625 -19 57 C-19.66 56.34 -20.32 55.68 -21 55 C-20.21496094 54.64808594 -19.42992188 54.29617187 -18.62109375 53.93359375 C-7.59766343 48.75325778 -1.61117206 43.37549471 3 32 C5.95558923 23.20853395 4.87015711 12.00483574 0.875 3.8203125 C0 2 0 2 0 0 Z " fill="#52D697" transform="translate(147,99)"/>
<path d="M0 0 C-0.75 1.9375 -0.75 1.9375 -2 4 C-4.125 4.75 -4.125 4.75 -6 5 C-5.814375 6.093125 -5.62875 7.18625 -5.4375 8.3125 C-5 12 -5 12 -6 15 C-6.99 15 -7.98 15 -9 15 C-9.66 13.68 -10.32 12.36 -11 11 C-11.66 11 -12.32 11 -13 11 C-13.66 13.31 -14.32 15.62 -15 18 C-16.65 18 -18.3 18 -20 18 C-20 14 -20 14 -18.34765625 11.81640625 C-6.36741768 0 -6.36741768 0 0 0 Z " fill="#3AE893" transform="translate(97,74)"/>
<path d="M0 0 C9.23406712 2.30851678 14.54341914 8.17454236 19.84765625 15.73046875 C20.22792969 16.47941406 20.60820312 17.22835938 21 18 C20.67 18.99 20.34 19.98 20 21 C19.67 20.01 19.34 19.02 19 18 C18.01 17.67 17.02 17.34 16 17 C16 16.01 16 15.02 16 14 C15.01 14 14.02 14 13 14 C13.33 14.99 13.66 15.98 14 17 C12.68 17.33 11.36 17.66 10 18 C10.33 19.98 10.66 21.96 11 24 C10.484375 23.29875 9.96875 22.5975 9.4375 21.875 C5.79557582 17.57939713 1.68015919 14.12010613 -3 11 C-0.6568787 11.25561323 1.67843403 11.59270772 4 12 C4.33 12.66 4.66 13.32 5 14 C6.91666667 14.83333333 6.91666667 14.83333333 9 15 C11.1385485 12.8614515 11.42655063 11.86724686 12 9 C11.34 9 10.68 9 10 9 C9.4225 8.401875 8.845 7.80375 8.25 7.1875 C5.71413784 4.72207845 3.2025306 3.45569573 0 2 C0 1.34 0 0.68 0 0 Z " fill="#4DDD98" transform="translate(109,276)"/>
<path d="M0 0 C3.21705123 1.10932801 3.97446713 1.95460824 5.6875 5 C6.120625 5.99 6.55375 6.98 7 8 C7.33 8.66 7.66 9.32 8 10 C8.66 10 9.32 10 10 10 C9.34 11.65 8.68 13.3 8 15 C9.98 14.34 11.96 13.68 14 13 C14 13.99 14 14.98 14 16 C18.455 15.505 18.455 15.505 23 15 C23 13.68 23 12.36 23 11 C23.66 11 24.32 11 25 11 C25.33 9.68 25.66 8.36 26 7 C26.99 8.485 26.99 8.485 28 10 C25.491328 14.18111999 23.56688872 17.08827914 19 19 C13.91070178 19.54528195 11.09180843 19.04312168 7 16 C5.234375 13.22265625 5.234375 13.22265625 3.75 10.0625 C3.24984375 9.02222656 2.7496875 7.98195313 2.234375 6.91015625 C1.24539293 4.57853712 0.50015921 2.47102467 0 0 Z " fill="#4FD999" transform="translate(120,300)"/>
<path d="M0 0 C5.28 0 10.56 0 16 0 C16 0.33 16 0.66 16 1 C11.38 1 6.76 1 2 1 C2.144375 2.72347656 2.28875 4.44695312 2.4375 6.22265625 C2.62514903 8.50259191 2.81264075 10.78254051 3 13.0625 C3.09539062 14.19623047 3.19078125 15.32996094 3.2890625 16.49804688 C4.28576203 28.70761614 4.28576203 28.70761614 4 33 C3.34 33.66 2.68 34.32 2 35 C1.34 31.7 0.68 28.4 0 25 C-0.66 25 -1.32 25 -2 25 C-1.84152588 24.27530518 -1.68305176 23.55061035 -1.51977539 22.80395508 C-1.03901777 20.21048338 -0.80242678 17.7680216 -0.68359375 15.13671875 C-0.64169922 14.25048828 -0.59980469 13.36425781 -0.55664062 12.45117188 C-0.51732422 11.53916016 -0.47800781 10.62714844 -0.4375 9.6875 C-0.37272461 8.29047852 -0.37272461 8.29047852 -0.30664062 6.86523438 C-0.20102876 4.57697723 -0.10005565 2.28850682 0 0 Z " fill="#54D698" transform="translate(73,230)"/>
<path d="M0 0 C0.99 0.99 1.98 1.98 3 3 C3.66 2.01 4.32 1.02 5 0 C5.33 0.66 5.66 1.32 6 2 C5.67 2.99 5.34 3.98 5 5 C5.99 4.67 6.98 4.34 8 4 C8.33 5.98 8.66 7.96 9 10 C7.35 10.66 5.7 11.32 4 12 C4.33 12.99 4.66 13.98 5 15 C4.0625 17.1875 4.0625 17.1875 3 19 C0.96834048 14.66579301 0.47939368 10.71403788 0 6 C-0.33 6 -0.66 6 -1 6 C-1.042721 4.33388095 -1.04063832 2.66617115 -1 1 C-0.67 0.67 -0.34 0.34 0 0 Z M5 12 C5.99 12.495 5.99 12.495 7 13 C6.01 13.495 6.01 13.495 5 14 C5 13.34 5 12.68 5 12 Z " fill="#39E68F" transform="translate(66,250)"/>
<path d="M0 0 C0 0.66 0 1.32 0 2 C-0.66 2 -1.32 2 -2 2 C-3.75881567 5.28312259 -5 8.23856995 -5 12 C-0.38 12 4.24 12 9 12 C9 12.33 9 12.66 9 13 C2.88470355 14.36512062 -4.21259605 15.71045243 -9.75 12.3125 C-11 10 -11 10 -11 7.4375 C-9.27646134 3.23637451 -4.62892211 0 0 0 Z " fill="#53D89A" transform="translate(84,189)"/>
<path d="M0 0 C0.19401633 1.81181405 0.38004375 3.62448532 0.5625 5.4375 C0.66691406 6.44683594 0.77132812 7.45617187 0.87890625 8.49609375 C0.93884766 9.73552734 0.93884766 9.73552734 1 11 C0 12 0 12 -2.46875 12.1328125 C-3.96921875 12.12894531 -3.96921875 12.12894531 -5.5 12.125 C-6.5003125 12.12757812 -7.500625 12.13015625 -8.53125 12.1328125 C-11 12 -11 12 -12 11 C-12.23529412 3.70588235 -12.23529412 3.70588235 -11 0 C-3.375 -1.125 -3.375 -1.125 0 0 Z M-10 2 C-10 4.64 -10 7.28 -10 10 C-6.7 10 -3.4 10 0 10 C-0.33 8.68 -0.66 7.36 -1 6 C-1.03786901 4.33376361 -1.04627845 2.66602403 -1 1 C-4.04200046 1 -6.99532806 1.55486342 -10 2 Z " fill="#6EDAAA" transform="translate(123,53)"/>
<path d="M0 0 C1.134375 0.66 2.26875 1.32 3.4375 2 C3.1075 2.66 2.7775 3.32 2.4375 4 C-0.0375 3.505 -0.0375 3.505 -2.5625 3 C-2.5625 2.34 -2.5625 1.68 -2.5625 1 C-11.76942462 0.60195155 -11.76942462 0.60195155 -20.5625 3 C-19.5725 4.98 -18.5825 6.96 -17.5625 9 C-18.5525 9.495 -18.5525 9.495 -19.5625 10 C-21.125 8.25 -21.125 8.25 -22.5625 6 C-22.32087838 3.47530062 -22.00627728 2.36679551 -20.03125 0.734375 C-13.05356251 -2.75446875 -7.13300727 -3.52247273 0 0 Z " fill="#5CCF9D" transform="translate(127.5625,21)"/>
<path d="M0 0 C2.61600148 2.50700142 3.34574641 4.73504721 3.625 8.25 C3.49029418 13.33514478 1.15396908 15.91440243 -2.2734375 19.46875 C-4 21 -4 21 -6 22 C-6 20.68 -6 19.36 -6 18 C-4.68 17.34 -3.36 16.68 -2 16 C-2.33 14.68 -2.66 13.36 -3 12 C-1.68 12.33 -0.36 12.66 1 13 C1 12.34 1 11.68 1 11 C0.34 11 -0.32 11 -1 11 C-0.814375 10.38125 -0.62875 9.7625 -0.4375 9.125 C0.23686176 6.95839822 0.23686176 6.95839822 -1 5 C-0.72057545 3.32345271 -0.39171753 1.65391846 0 0 Z " fill="#51DA9B" transform="translate(131,24)"/>
<path d="M0 0 C2.98648563 2.98648563 2.29249394 5.76547493 2.32226562 9.84960938 C2.31904297 10.86861328 2.31582031 11.88761719 2.3125 12.9375 C2.32861328 13.95263672 2.34472656 14.96777344 2.36132812 16.01367188 C2.36197266 16.98755859 2.36261719 17.96144531 2.36328125 18.96484375 C2.36626221 19.8580835 2.36924316 20.75132324 2.37231445 21.67163086 C2 24 2 24 -1 27 C-0.67 18.09 -0.34 9.18 0 0 Z " fill="#52D096" transform="translate(103,286)"/>
<path d="M0 0 C0.33 0 0.66 0 1 0 C1.81496642 3.06184906 2.62653247 6.12458958 3.4375 9.1875 C3.66759766 10.05181641 3.89769531 10.91613281 4.13476562 11.80664062 C5.20474731 15.85396263 6.25729859 19.87672667 7 24 C6.01 23.67 5.02 23.34 4 23 C4 21.68 4 20.36 4 19 C2.68 19.33 1.36 19.66 0 20 C0 18.68 0 17.36 0 16 C0.66 16 1.32 16 2 16 C1.67 15.030625 1.34 14.06125 1 13.0625 C-0.26873752 8.70233163 -0.18385528 4.50445434 0 0 Z " fill="#50D398" transform="translate(79,274)"/>
<path d="M0 0 C1.69270833 1.00911458 3.38541667 2.01822917 5.078125 3.02734375 C11.54771341 6.30158666 20.41068972 5.97207106 27.25 4 C28.1575 3.67 29.065 3.34 30 3 C30 3.66 30 4.32 30 5 C27.6875 7.1875 27.6875 7.1875 25 9 C24.01 8.67 23.02 8.34 22 8 C19.9387731 7.87311189 17.87589257 7.77216441 15.8125 7.6875 C9.86256354 7.26867766 5.99000383 6.26269481 1 3 C0.67 2.01 0.34 1.02 0 0 Z " fill="#5EDC9E" transform="translate(111,196)"/>
<path d="M0 0 C0 0.66 0 1.32 0 2 C-1.98 2 -3.96 2 -6 2 C-6.33 2.99 -6.66 3.98 -7 5 C-12.28 5 -17.56 5 -23 5 C-23.33 4.34 -23.66 3.68 -24 3 C-22.33710937 2.80083984 -22.33710937 2.80083984 -20.640625 2.59765625 C-19.1770673 2.41940243 -17.71352651 2.24100972 -16.25 2.0625 C-15.15558594 1.93198242 -15.15558594 1.93198242 -14.0390625 1.79882812 C-9.98879097 1.32006608 -9.98879097 1.32006608 -6.00683594 0.46655273 C-4 0 -4 0 0 0 Z " fill="#58DA9F" transform="translate(102,217)"/>
<path d="M0 0 C0.33 0 0.66 0 1 0 C1.36220266 1.79005941 1.71452469 3.58212057 2.0625 5.375 C2.25972656 6.37273437 2.45695312 7.37046875 2.66015625 8.3984375 C3 11 3 11 2 13 C1.34 13 0.68 13 0 13 C-0.66 17.29 -1.32 21.58 -2 26 C-2.33 26 -2.66 26 -3 26 C-3.4490156 16.91990679 -2.18842083 8.80578857 0 0 Z " fill="#56D998" transform="translate(59,184)"/>
<path d="M0 0 C2.475 0.495 2.475 0.495 5 1 C0.39345977 6.65348119 -6.92135973 9.84766321 -14 11 C-14.33 10.34 -14.66 9.68 -15 9 C-14.34 9 -13.68 9 -13 9 C-13 8.34 -13 7.68 -13 7 C-10.36 7 -7.72 7 -5 7 C-5 6.34 -5 5.68 -5 5 C-4.01 5 -3.02 5 -2 5 C-2 4.01 -2 3.02 -2 2 C-1.34 2 -0.68 2 0 2 C0 1.34 0 0.68 0 0 Z " fill="#5ADC9E" transform="translate(117,216)"/>
<path d="M0 0 C1.299375 0.185625 2.59875 0.37125 3.9375 0.5625 C4.948125 0.706875 5.95875 0.85125 7 1 C7 1.99 7 2.98 7 4 C5.85917969 3.67386719 4.71835938 3.34773438 3.54296875 3.01171875 C-0.92298244 1.89744377 -5.10435008 1.73468065 -9.6875 1.8125 C-10.42033203 1.81314453 -11.15316406 1.81378906 -11.90820312 1.81445312 C-15.72257556 1.84540836 -19.29231331 2.08587606 -23 3 C-22.67 2.01 -22.34 1.02 -22 0 C-19.64628886 -0.1968999 -17.2925305 -0.38270974 -14.9375 -0.5625 C-13.62652344 -0.66691406 -12.31554687 -0.77132812 -10.96484375 -0.87890625 C-7.14113235 -0.99568955 -3.76053889 -0.6508625 0 0 Z " fill="#58D89B" transform="translate(125,81)"/>
<path d="M0 0 C4.55528717 4.55528717 5.1763669 14.19209776 5.25 20.5 C5.01948624 23.7271927 4.63434296 26.82828519 4 30 C3.67 30 3.34 30 3 30 C2.95101562 28.70964844 2.90203125 27.41929688 2.8515625 26.08984375 C2.77648197 24.37237653 2.70093646 22.65492959 2.625 20.9375 C2.57859375 19.66616211 2.57859375 19.66616211 2.53125 18.36914062 C2.29338574 13.23523706 1.50555284 8.90222691 0 4 C0 2.68 0 1.36 0 0 Z " fill="#57CC98" transform="translate(160,100)"/>
<path d="M0 0 C0.99 0 1.98 0 3 0 C4.40568804 1.94982535 5.7295036 3.95950578 7 6 C9.90303052 10.25777809 11.97923635 11.74480909 17 13 C15.3125 14.1875 15.3125 14.1875 13 15 C8.8951819 13.04210979 6.46514613 10.48932999 3.6875 6.9375 C2.64142578 5.62072266 2.64142578 5.62072266 1.57421875 4.27734375 C0 2 0 2 0 0 Z " fill="#5BD79E" transform="translate(113,168)"/>
<path d="M0 0 C0.33 0 0.66 0 1 0 C1 2.31 1 4.62 1 7 C4.3 7 7.6 7 11 7 C11 6.01 11 5.02 11 4 C11.66 4 12.32 4 13 4 C12.67 5.65 12.34 7.3 12 9 C7.71 9 3.42 9 -1 9 C-1.125 2.25 -1.125 2.25 0 0 Z " fill="#5DCF9C" transform="translate(112,42)"/>
<path d="M0 0 C0.66 0.33 1.32 0.66 2 1 C1.65308621 4.70041374 0.44522953 6.94971721 -1.625 9.9375 C-3.6456366 12.98871917 -4.01724912 13.67801642 -3.8125 17.5 C-3.544375 18.325 -3.27625 19.15 -3 20 C-6 18 -6 18 -6.8125 15.125 C-7.00455315 11.92411417 -6.72217143 10.63390925 -5 8 C-4.01 8 -3.02 8 -2 8 C-2 7.01 -2 6.02 -2 5 C-1.34 5 -0.68 5 0 5 C0 3.35 0 1.7 0 0 Z " fill="#55D998" transform="translate(159,135)"/>
<path d="M0 0 C0.99 0.33 1.98 0.66 3 1 C2.79503906 1.53109375 2.59007813 2.0621875 2.37890625 2.609375 C2.10949219 3.31578125 1.84007813 4.0221875 1.5625 4.75 C1.29566406 5.44609375 1.02882813 6.1421875 0.75390625 6.859375 C-0.90100788 11.55830216 -1.12357498 15.77943644 -1.0625 20.75 C-1.05798828 21.44738281 -1.05347656 22.14476563 -1.04882812 22.86328125 C-1.0371002 24.57555803 -1.01916653 26.28779033 -1 28 C-1.66 27.67 -2.32 27.34 -3 27 C-3 20.73 -3 14.46 -3 8 C-2.34 8 -1.68 8 -1 8 C-1.020625 7.05125 -1.04125 6.1025 -1.0625 5.125 C-1 2 -1 2 0 0 Z " fill="#59CD98" transform="translate(80,100)"/>
<path d="M0 0 C2.31 0.66 4.62 1.32 7 2 C7 2.99 7 3.98 7 5 C5.35 4.01 3.7 3.02 2 2 C2.4859793 9.3620694 2.97674072 16.69100518 4 24 C1.92329908 22.31011183 1.07665372 21.40213987 0.56762695 18.73168945 C0.54144287 17.86761475 0.51525879 17.00354004 0.48828125 16.11328125 C0.45283203 15.17548828 0.41738281 14.23769531 0.38085938 13.27148438 C0.35830078 12.29501953 0.33574219 11.31855469 0.3125 10.3125 C0.27833984 9.32443359 0.24417969 8.33636719 0.20898438 7.31835938 C0.12649462 4.87901947 0.05734932 2.44003937 0 0 Z " fill="#64D29E" transform="translate(98,155)"/>
<path d="M0 0 C0.33 0 0.66 0 1 0 C1 2.31 1 4.62 1 7 C1.66 7 2.32 7 3 7 C2.67 8.98 2.34 10.96 2 13 C2.66 13 3.32 13 4 13 C3.67 14.65 3.34 16.3 3 18 C1.35 18.33 -0.3 18.66 -2 19 C-1.01 17.515 -1.01 17.515 0 16 C-0.01522013 12.62710632 -0.01522013 12.62710632 -0.4375 8.9375 C-1.09836066 2.19672131 -1.09836066 2.19672131 0 0 Z " fill="#5BD79C" transform="translate(86,170)"/>
<path d="M0 0 C2.97 0.495 2.97 0.495 6 1 C6.33 2.65 6.66 4.3 7 6 C6.01 6.33 5.02 6.66 4 7 C3.67 7.66 3.34 8.32 3 9 C2.67 8.01 2.34 7.02 2 6 C1.67 6.99 1.34 7.98 1 9 C0 8 0 8 -0.09765625 6.15234375 C-0.06510417 4.1015625 -0.03255208 2.05078125 0 0 Z " fill="#39EA92" transform="translate(70,166)"/>
<path d="M0 0 C0.33 0.66 0.66 1.32 1 2 C2.32 1.67 3.64 1.34 5 1 C5.12036664 6.77759884 4.8320582 12.27959989 4 18 C3.67 18 3.34 18 3 18 C2.67 13.71 2.34 9.42 2 5 C1.01 5 0.02 5 -1 5 C-0.67 3.35 -0.34 1.7 0 0 Z " fill="#50D996" transform="translate(154,260)"/>
<path d="M0 0 C1.32 0.33 2.64 0.66 4 1 C6.38858824 9.36005884 6.190218 17.38735156 6 26 C5.67 26 5.34 26 5 26 C4.97421875 25.10539062 4.9484375 24.21078125 4.921875 23.2890625 C4.58905378 16.19391928 3.84748119 10.35544 0.83984375 3.890625 C0 2 0 2 0 0 Z " fill="#64DA9D" transform="translate(147,99)"/>
<path d="M0 0 C0.66 0.33 1.32 0.66 2 1 C1.98839844 2.25296875 1.97679688 3.5059375 1.96484375 4.796875 C1.95546284 6.44791517 1.94636296 8.09895696 1.9375 9.75 C1.92912109 10.575 1.92074219 11.4 1.91210938 12.25 C1.90727539 13.44882813 1.90727539 13.44882813 1.90234375 14.671875 C1.89448853 15.77160645 1.89448853 15.77160645 1.88647461 16.89355469 C2.0024891 19.0461849 2.40926729 20.9314135 3 23 C2.01 23 1.02 23 0 23 C-0.99290126 20.02129623 -1.05524548 18.40817115 -0.87890625 15.33203125 C-0.83056641 14.43935547 -0.78222656 13.54667969 -0.73242188 12.62695312 C-0.67634766 11.69818359 -0.62027344 10.76941406 -0.5625 9.8125 C-0.51029297 8.87212891 -0.45808594 7.93175781 -0.40429688 6.96289062 C-0.27468082 4.64158499 -0.13971819 2.32071591 0 0 Z " fill="#51D39A" transform="translate(67,191)"/>
<path d="M0 0 C0.33 0 0.66 0 1 0 C1.22786458 2.05078125 1.45572917 4.1015625 1.68359375 6.15234375 C1.81886614 8.01140229 1.81886614 8.01140229 3 9 C3.23527773 11.34987262 3.41386417 13.70556039 3.5625 16.0625 C3.64628906 17.35285156 3.73007813 18.64320313 3.81640625 19.97265625 C3.87699219 20.97167969 3.93757813 21.97070312 4 23 C-0.48355057 16.27467414 -0.30050602 7.84654605 0 0 Z " fill="#78DCA4" transform="translate(66,114)"/>
<path d="M0 0 C3.21705123 1.10932801 3.97446713 1.95460824 5.6875 5 C6.120625 5.99 6.55375 6.98 7 8 C7.33 8.66 7.66 9.32 8 10 C8.66 10 9.32 10 10 10 C10 10.66 10 11.32 10 12 C8.125 11.75 8.125 11.75 6 11 C4.9375 9.125 4.9375 9.125 4 7 C3.484375 6.505 2.96875 6.01 2.4375 5.5 C0.73683989 3.72539815 0.41205818 2.38993744 0 0 Z " fill="#4BE299" transform="translate(120,300)"/>
<path d="M0 0 C0.33 0 0.66 0 1 0 C0.5547115 5.27315333 -0.08373163 10.01770224 -2 15 C-1.34 15.33 -0.68 15.66 0 16 C-1.65 16.33 -3.3 16.66 -5 17 C-4.31063929 13.08878502 -3.21749819 9.44491404 -1.9375 5.6875 C-1.57527344 4.61886719 -1.21304688 3.55023438 -0.83984375 2.44921875 C-0.56269531 1.64097656 -0.28554687 0.83273437 0 0 Z " fill="#53CF95" transform="translate(142,288)"/>
<path d="M0 0 C-0.33 0.99 -0.66 1.98 -1 3 C-1.99 3.33 -2.98 3.66 -4 4 C-4.33 4.66 -4.66 5.32 -5 6 C-4.34 6 -3.68 6 -3 6 C-3 6.99 -3 7.98 -3 9 C-3.66 9 -4.32 9 -5 9 C-6.49821059 5.62902617 -7 3.79557881 -7 0 C-3.86650268 -1.04449911 -3.01031744 -0.93423645 0 0 Z " fill="#37E68F" transform="translate(111,151)"/>
<path d="M0 0 C-0.99622289 2.56018571 -1.62293748 3.7772565 -4.0234375 5.1953125 C-5.18746094 5.65550781 -5.18746094 5.65550781 -6.375 6.125 C-9.31837909 7.31613334 -12.17680976 8.5432854 -15 10 C-11.91546928 5.3061489 -5.97868281 0 0 0 Z " fill="#59D79D" transform="translate(97,74)"/>
<path d="M0 0 C5.52263806 1.38065951 9.87406802 4.13009244 14 8 C14.33 8.99 14.66 9.98 15 11 C14.34 11 13.68 11 13 11 C13 10.34 13 9.68 13 9 C12.01 9 11.02 9 10 9 C8.66666667 7.66666667 7.33333333 6.33333333 6 5 C4.03120677 3.93988057 2.03564133 2.92529151 0 2 C0 1.34 0 0.68 0 0 Z " fill="#5BD4A1" transform="translate(109,276)"/>
<path d="M0 0 C4.0081803 3.67416528 6.52591615 7.14346504 9 12 C9 12.66 9 13.32 9 14 C8.34 14 7.68 14 7 14 C6.7525 13.21625 6.505 12.4325 6.25 11.625 C5.28554779 8.85211633 5.28554779 8.85211633 2.9375 8.125 C2.298125 7.75375 1.65875 7.3825 1 7 C0.25 3.375 0.25 3.375 0 0 Z " fill="#57D79D" transform="translate(151,86)"/>
<path d="M0 0 C5.40489519 1.52012677 8.98492628 5.27385218 13 9 C12.01 9.33 11.02 9.66 10 10 C8.5 8.625 8.5 8.625 7 7 C7 6.34 7 5.68 7 5 C6.21625 4.9175 5.4325 4.835 4.625 4.75 C2 4 2 4 0.6875 1.9375 C0.460625 1.298125 0.23375 0.65875 0 0 Z " fill="#56D89C" transform="translate(138,76)"/>
<path d="M0 0 C1 2 1 2 0.22265625 4.6015625 C-0.16019531 5.59929687 -0.54304687 6.59703125 -0.9375 7.625 C-1.50791016 9.12933594 -1.50791016 9.12933594 -2.08984375 10.6640625 C-2.39019531 11.43492187 -2.69054687 12.20578125 -3 13 C-3.33 13 -3.66 13 -4 13 C-4.02712066 11.56260487 -4.04645067 10.12506137 -4.0625 8.6875 C-4.07410156 7.88699219 -4.08570313 7.08648437 -4.09765625 6.26171875 C-4 4 -4 4 -3 1 C-2.01 0.67 -1.02 0.34 0 0 Z " fill="#55D99D" transform="translate(152,296)"/>
<path d="M0 0 C0.33 0.99 0.66 1.98 1 3 C-1.34495408 7.23895546 -3.90614975 10.37573702 -8 13 C-8.99 12.67 -9.98 12.34 -11 12 C-10.54109375 11.63648438 -10.0821875 11.27296875 -9.609375 10.8984375 C-5.56506013 7.58481817 -2.67466686 4.49344033 0 0 Z " fill="#58D198" transform="translate(152,186)"/>
<path d="M0 0 C1.76141726 2.64212589 3.23818698 5.2427764 4.6875 8.0625 C5.14511719 8.94035156 5.60273437 9.81820312 6.07421875 10.72265625 C6.37972656 11.47417969 6.68523437 12.22570312 7 13 C6.67 13.66 6.34 14.32 6 15 C2.53164497 11.68929747 0.79419451 9.13323688 0.375 4.3125 C0.30023438 3.50425781 0.22546875 2.69601563 0.1484375 1.86328125 C0.09945312 1.24839844 0.05046875 0.63351563 0 0 Z " fill="#5ACF9C" transform="translate(102,179)"/>
<path d="M0 0 C0.99 0.66 1.98 1.32 3 2 C1.7912883 5.6261351 -0.35694503 7.35694503 -3 10 C-4 7 -4 7 -3.22265625 5.17578125 C-2.1484375 3.45052083 -1.07421875 1.72526042 0 0 Z " fill="#57E09E" transform="translate(66,169)"/>
<path d="M0 0 C0.474375 0.66 0.94875 1.32 1.4375 2 C5.14875563 4.89658976 8.45397207 4.34969446 13 4 C12.67 4.66 12.34 5.32 12 6 C8.37 6 4.74 6 1 6 C0.67 4.02 0.34 2.04 0 0 Z " fill="#59D699" transform="translate(113,151)"/>
<path d="M0 0 C0 0.99 0 1.98 0 3 C-1.65 3.66 -3.3 4.32 -5 5 C-5.33 3.35 -5.66 1.7 -6 0 C-3.50907189 -1.24546405 -2.58919267 -0.7767578 0 0 Z " fill="#36E88F" transform="translate(97,79)"/>
<path d="M0 0 C0.99 0 1.98 0 3 0 C3.66 3.3 4.32 6.6 5 10 C2.47671768 7.47671768 1.28600973 6.1655624 0 3 C0 2.01 0 1.02 0 0 Z " fill="#4FD699" transform="translate(75,298)"/>
<path d="M0 0 C0.33 0 0.66 0 1 0 C0.979375 1.11375 0.95875 2.2275 0.9375 3.375 C0.73619282 6.83215921 0.73619282 6.83215921 2 9 C0.35 9 -1.3 9 -3 9 C-3 7.35 -3 5.7 -3 4 C-2.01 4 -1.02 4 0 4 C0 2.68 0 1.36 0 0 Z " fill="#3EE494" transform="translate(121,54)"/>
<path d="M0 0 C1.5 1.3125 1.5 1.3125 3 3 C3 3.99 3 4.98 3 6 C1.35 6 -0.3 6 -2 6 C-2 2 -2 2 0 0 Z " fill="#53E0A1" transform="translate(79,86)"/>
<path d="M0 0 C6.4 0.36923077 6.4 0.36923077 9.4375 3.5625 C9.953125 4.366875 10.46875 5.17125 11 6 C7.05594798 6 5.9482215 4.50598828 3 2 C2.01 1.34 1.02 0.68 0 0 Z " fill="#5BD099" transform="translate(106,287)"/>
<path d="M0 0 C2 2 2 2 2 5 C2.99 5.33 3.98 5.66 5 6 C5.33 6.99 5.66 7.98 6 9 C5.01 9.33 4.02 9.66 3 10 C0.96564469 6.27034861 0 4.33094958 0 0 Z " fill="#56D39C" transform="translate(57,210)"/>
<path d="M0 0 C3.08089673 2.77280706 4.68775452 5.06326356 6 9 C5.01 9.495 5.01 9.495 4 10 C3.67 8.68 3.34 7.36 3 6 C2.34 6 1.68 6 1 6 C0.67 4.02 0.34 2.04 0 0 Z " fill="#58D79A" transform="translate(157,156)"/>
<path d="M0 0 C2.53731364 1.26865682 2.78646846 2.49709121 4 5 C4.66 5.66 5.32 6.32 6 7 C6 7.99 6 8.98 6 10 C5.34 10 4.68 10 4 10 C0 3.375 0 3.375 0 0 Z " fill="#5BCF9B" transform="translate(123,306)"/>
<path d="M0 0 C0.33 0 0.66 0 1 0 C1.33 3.63 1.66 7.26 2 11 C1.01 10.67 0.02 10.34 -1 10 C-0.67 6.7 -0.34 3.4 0 0 Z " fill="#58D298" transform="translate(77,263)"/>
<path d="M0 0 C5 7.5 5 7.5 5 11 C3.68 10.67 2.36 10.34 1 10 C0.67 6.7 0.34 3.4 0 0 Z " fill="#61D5A1" transform="translate(79,129)"/>
<path d="M0 0 C0.33 0.66 0.66 1.32 1 2 C0.22265625 3.9453125 0.22265625 3.9453125 -0.9375 6.125 C-1.31777344 6.84945312 -1.69804688 7.57390625 -2.08984375 8.3203125 C-2.39019531 8.87460938 -2.69054687 9.42890625 -3 10 C-3.66 10 -4.32 10 -5 10 C-3.84414715 6.08788267 -2.64465038 3.1254959 0 0 Z " fill="#5DD4A2" transform="translate(75,91)"/>
<path d="M0 0 C0.99 0 1.98 0 3 0 C2.67 2.31 2.34 4.62 2 7 C0.4375 5.75 0.4375 5.75 -1 4 C-0.6875 1.8125 -0.6875 1.8125 0 0 Z " fill="#42E095" transform="translate(81,84)"/>
<path d="M0 0 C2.25 -0.375 2.25 -0.375 5 0 C7.3125 3 7.3125 3 9 6 C8.01 6 7.02 6 6 6 C4.95884159 4.69855198 3.96113866 3.36161311 3 2 C2.01 1.34 1.02 0.68 0 0 Z " fill="#5FD79D" transform="translate(93,200)"/>
<path d="M0 0 C1.39195915 4.17587745 -0.17676781 6.13474776 -2 10 C-2.33 10 -2.66 10 -3 10 C-2.25 3.375 -2.25 3.375 0 0 Z " fill="#61D3A1" transform="translate(163,187)"/>
<path d="M0 0 C0.66 0 1.32 0 2 0 C1.67 1.65 1.34 3.3 1 5 C-0.65 5.33 -2.3 5.66 -4 6 C-2.7260411 3.96166576 -1.38938077 1.96147874 0 0 Z " fill="#45D694" transform="translate(88,183)"/>
<path d="M0 0 C0 0.66 0 1.32 0 2 C-0.66 2 -1.32 2 -2 2 C-2 2.66 -2 3.32 -2 4 C-3.32 4 -4.64 4 -6 4 C-6.33 3.01 -6.66 2.02 -7 1 C-2.25 0 -2.25 0 0 0 Z " fill="#39D98A" transform="translate(132,164)"/>
<path d="M0 0 C0.66 0 1.32 0 2 0 C2 1.65 2 3.3 2 5 C0.35 5.33 -1.3 5.66 -3 6 C-2.01 4.02 -1.02 2.04 0 0 Z " fill="#49D694" transform="translate(79,152)"/>
</svg>
